<svg width="25" height="25" viewBox="0 0 25 25" fill="none" xmlns="http://www.w3.org/2000/svg">
<path d="M21.6292 12.3847C21.6292 17.4902 17.4903 21.6291 12.3848 21.6291C7.27923 21.6291 3.14038 17.4902 3.14038 12.3847C3.14038 7.27914 7.27923 3.14029 12.3848 3.14029M17.5205 12.3847C17.5205 15.2211 15.2212 17.5204 12.3848 17.5204C9.54836 17.5204 7.249 15.2211 7.249 12.3847C7.249 9.54827 9.54836 7.2489 12.3848 7.2489M15.2175 9.66438L19.284 10.0915L21.4884 7.00539L18.8431 6.12365L17.9614 3.47844L14.8753 5.68279L15.2175 9.66438ZM15.2175 9.66438L12.3848 12.3846" stroke="white" stroke-width="1.54073" stroke-linecap="round" stroke-linejoin="round"/>
</svg>
