<svg width="28" height="28" viewBox="0 0 28 28" fill="none" xmlns="http://www.w3.org/2000/svg">
<path d="M4.40339 10.8908H23.9894M8.74056 4.33514L14.1964 10.8909L19.6614 4.33973M23.7674 10.3719L19.9675 4.67205C19.8718 4.52854 19.824 4.45678 19.7608 4.40483C19.7048 4.35884 19.6404 4.32434 19.5711 4.30329C19.4928 4.27951 19.4065 4.27951 19.2341 4.27951H9.15871C8.98623 4.27951 8.89998 4.27951 8.8217 4.30329C8.7524 4.32434 8.68792 4.35884 8.63197 4.40483C8.56876 4.45678 8.52093 4.52854 8.42525 4.67205L4.62534 10.3719C4.50078 10.5588 4.4385 10.6522 4.41618 10.7527C4.39647 10.8414 4.39903 10.9337 4.42364 11.0212C4.4515 11.1203 4.51886 11.2102 4.65359 11.3898L13.4912 23.1732C13.7304 23.4922 13.85 23.6517 13.9967 23.7087C14.1251 23.7587 14.2676 23.7587 14.3961 23.7087C14.5427 23.6517 14.6624 23.4922 14.9016 23.1732L23.7392 11.3898C23.8739 11.2102 23.9413 11.1203 23.9691 11.0212C23.9937 10.9337 23.9963 10.8414 23.9766 10.7527C23.9543 10.6522 23.892 10.5588 23.7674 10.3719Z" stroke="#1B223C" stroke-width="1.65283" stroke-linecap="round" stroke-linejoin="round"/>
</svg>
